<?xml version="1.0" standalone="no"?>
<!DOCTYPE svg PUBLIC "-//W3C//DTD SVG 20010904//EN"
 "http://www.w3.org/TR/2001/REC-SVG-20010904/DTD/svg10.dtd">
<svg version="1.0" xmlns="http://www.w3.org/2000/svg"
 width="700.000000pt" height="700.000000pt" viewBox="0 0 700.000000 700.000000"
 preserveAspectRatio="xMidYMid meet">
<metadata>
Created by potrace 1.11, written by Peter Selinger 2001-2013
</metadata>
<g transform="translate(0.000000,700.000000) scale(0.100000,-0.100000)"
fill="#000000" stroke="none">
<path d="M3405 6006 c-54 -17 -81 -34 -835 -537 -901 -601 -894 -596 -935
-689 -19 -44 -20 -80 -22 -1916 l-2 -1872 22 -4 c19 -4 1192 -3 1224 1 9 1 12
178 13 721 1 788 -1 762 60 814 18 14 44 27 58 27 15 1 251 3 524 4 489 2 497
2 534 -19 20 -11 46 -33 57 -48 26 -35 26 -42 27 -858 l0 -646 631 0 630 0 -3
1876 c-3 1764 -4 1877 -21 1914 -44 100 -12 75 -887 662 -630 422 -804 535
-865 563 -40 19 -160 23 -210 7z m254 -946 c265 -53 499 -258 584 -513 31 -93
40 -147 40 -256 0 -113 -9 -169 -38 -254 -93 -266 -314 -459 -596 -523 -58
-13 -270 -6 -341 11 -300 74 -530 320 -584 625 -12 70 -6 254 10 324 58 246
255 465 498 556 118 44 294 56 427 30z"/>
<path d="M3369 4742 l-22 -19 -1 -351 -1 -351 23 -23 c22 -22 25 -23 293 -22
332 0 309 -12 309 158 0 105 -2 114 -23 134 -21 20 -34 22 -155 22 l-132 0 -1
88 c-1 75 -2 137 -8 323 -1 49 -27 59 -155 59 -86 0 -108 -3 -127 -18z"/>
<path d="M906 4133 c-1 -1 -69 -3 -151 -4 -122 -1 -160 -5 -202 -21 -68 -25
-136 -92 -172 -168 l-28 -60 -2 -1387 -1 -1388 22 -39 c46 -80 36 -79 506 -80
l417 -1 -1 1568 c-1 862 -3 1570 -6 1572 -5 5 -377 12 -382 8z"/>
<path d="M5744 4132 c-26 -3 -33 -8 -36 -30 -2 -15 -3 -719 -2 -1566 1 -1171
5 -1540 14 -1546 6 -4 192 -6 413 -5 451 2 444 1 493 74 l25 39 -3 1399 c-4
1390 -4 1398 -25 1443 -25 55 -100 133 -157 162 -31 16 -64 22 -141 25 -136 5
-543 9 -581 5z"/>
</g>
</svg>
