<?xml version="1.0" standalone="no"?>
<!DOCTYPE svg PUBLIC "-//W3C//DTD SVG 20010904//EN"
 "http://www.w3.org/TR/2001/REC-SVG-20010904/DTD/svg10.dtd">
<svg version="1.0" xmlns="http://www.w3.org/2000/svg"
 width="1024.000000pt" height="1024.000000pt" viewBox="0 0 1024.000000 1024.000000"
 preserveAspectRatio="xMidYMid meet">
<metadata>
Created by potrace 1.11, written by Peter Selinger 2001-2013
</metadata>
<g transform="translate(0.000000,1024.000000) scale(0.100000,-0.100000)"
fill="#000000" stroke="none">
<path d="M5045 8803 c-11 -2 -47 -11 -80 -20 -61 -18 -129 -62 -2012 -1322
-264 -177 -441 -301 -472 -334 -52 -53 -75 -92 -106 -182 -17 -47 -18 -202
-19 -2773 -1 -1498 3 -2726 7 -2729 12 -7 1814 -6 1825 1 7 4 10 377 10 1062
l1 1056 26 53 c25 53 64 89 119 113 22 10 200 13 772 13 l744 0 54 -24 c58
-27 108 -86 121 -145 3 -18 7 -505 7 -1082 l0 -1050 56 -1 c73 0 1729 0 1762
0 l25 1 -1 2722 c-1 2150 -4 2732 -13 2768 -21 73 -66 152 -117 202 -26 26
-241 177 -478 335 -237 159 -435 292 -441 296 -5 4 -343 230 -750 502 -672
450 -774 513 -855 533 -23 5 -163 9 -185 5z m300 -1398 c269 -54 493 -191 674
-414 107 -131 166 -244 210 -404 32 -116 33 -124 37 -292 3 -185 -13 -287 -72
-438 -116 -302 -394 -570 -694 -671 -41 -13 -86 -27 -100 -30 -14 -3 -52 -10
-85 -17 -94 -18 -352 -15 -425 6 -8 2 -26 6 -40 9 -280 53 -575 271 -729 536
-60 102 -113 251 -136 380 -13 72 -15 339 -2 400 2 14 8 39 11 57 11 60 68
218 96 269 156 287 423 508 705 585 44 12 114 27 155 33 98 16 295 11 395 -9z"/>
<path d="M4964 6958 c-17 -4 -39 -17 -50 -29 -18 -20 -19 -44 -22 -524 -1
-311 1 -512 7 -528 6 -14 22 -34 38 -44 25 -16 58 -18 403 -18 206 -1 387 3
403 8 15 5 36 20 47 34 18 23 20 41 20 190 l0 165 -29 29 c-16 16 -35 30 -43
30 -7 1 -96 2 -198 3 l-185 1 -5 315 c-3 173 -9 322 -13 331 -17 33 -59 43
-202 44 -77 1 -154 -2 -171 -7z"/>
<path d="M876 6033 c-149 -30 -274 -142 -338 -303 l-22 -55 -1 -2028 -2 -2029
22 -46 c27 -59 82 -108 136 -122 33 -9 848 -16 1189 -11 l35 1 -1 2298 c-1
1263 -2 2299 -3 2302 0 3 -216 5 -478 5 -336 0 -495 -4 -537 -12z"/>
<path d="M8349 6045 c-7 -1 -2 -4598 4 -4602 18 -11 1174 -5 1216 7 51 13 105
60 134 114 l22 41 0 2030 c0 1937 -1 2032 -18 2084 -50 148 -179 270 -327 312
-33 9 -175 13 -537 13 -271 1 -494 1 -494 1z"/>
</g>
</svg>
